<svg id="visual" viewBox="0 0 900 600" width="900" height="600" xmlns="http://www.w3.org/2000/svg" xmlns:xlink="http://www.w3.org/1999/xlink" version="1.1"><g stroke-width="1" stroke-linejoin="bevel"><path d="M399 333L333 379L373 368Z" fill="#007bbe" stroke="#007bbe"></path><path d="M399 333L273 277L333 379Z" fill="#00679f" stroke="#00679f"></path><path d="M399 333L312 187L273 277Z" fill="#0074b4" stroke="#0074b4"></path><path d="M177 325L221 394L273 277Z" fill="#00679f" stroke="#00679f"></path><path d="M273 277L221 394L333 379Z" fill="#0081c9" stroke="#0081c9"></path><path d="M174 187L177 325L273 277Z" fill="#005481" stroke="#005481"></path><path d="M221 394L314 474L333 379Z" fill="#0074b4" stroke="#0074b4"></path><path d="M333 379L382 472L373 368Z" fill="#0081c9" stroke="#0081c9"></path><path d="M518 412L509 317L399 333Z" fill="#014e77" stroke="#014e77"></path><path d="M314 474L382 472L333 379Z" fill="#005b8b" stroke="#005b8b"></path><path d="M509 317L439 181L399 333Z" fill="#005b8b" stroke="#005b8b"></path><path d="M399 333L439 181L312 187Z" fill="#006195" stroke="#006195"></path><path d="M518 412L399 333L373 368Z" fill="#014e77" stroke="#014e77"></path><path d="M439 181L403 139L312 187Z" fill="#007bbe" stroke="#007bbe"></path><path d="M210 129L174 187L312 187Z" fill="#005481" stroke="#005481"></path><path d="M312 187L174 187L273 277Z" fill="#0081c9" stroke="#0081c9"></path><path d="M403 139L305 110L312 187Z" fill="#0074b4" stroke="#0074b4"></path><path d="M382 472L518 412L373 368Z" fill="#034264" stroke="#034264"></path><path d="M174 187L123 304L177 325Z" fill="#0081c9" stroke="#0081c9"></path><path d="M177 325L68 384L221 394Z" fill="#0081c9" stroke="#0081c9"></path><path d="M305 110L210 129L312 187Z" fill="#02486e" stroke="#02486e"></path><path d="M509 317L539 175L439 181Z" fill="#005481" stroke="#005481"></path><path d="M439 181L530 91L403 139Z" fill="#005b8b" stroke="#005b8b"></path><path d="M375 0L319 0L305 110Z" fill="#007bbe" stroke="#007bbe"></path><path d="M597 262L539 175L509 317Z" fill="#006ea9" stroke="#006ea9"></path><path d="M382 472L481 515L518 412Z" fill="#014e77" stroke="#014e77"></path><path d="M401 600L481 515L382 472Z" fill="#02486e" stroke="#02486e"></path><path d="M83 99L99 215L174 187Z" fill="#014e77" stroke="#014e77"></path><path d="M174 187L99 215L123 304Z" fill="#034264" stroke="#034264"></path><path d="M617 365L509 317L518 412Z" fill="#00679f" stroke="#00679f"></path><path d="M617 365L597 262L509 317Z" fill="#005b8b" stroke="#005b8b"></path><path d="M597 262L563 172L539 175Z" fill="#0081c9" stroke="#0081c9"></path><path d="M539 175L530 91L439 181Z" fill="#014e77" stroke="#014e77"></path><path d="M221 394L169 531L314 474Z" fill="#02486e" stroke="#02486e"></path><path d="M314 474L327 600L382 472Z" fill="#0074b4" stroke="#0074b4"></path><path d="M68 384L169 531L221 394Z" fill="#034264" stroke="#034264"></path><path d="M68 384L177 325L123 304Z" fill="#005b8b" stroke="#005b8b"></path><path d="M0 328L68 384L123 304Z" fill="#014e77" stroke="#014e77"></path><path d="M624 468L617 365L518 412Z" fill="#006195" stroke="#006195"></path><path d="M169 531L327 600L314 474Z" fill="#007bbe" stroke="#007bbe"></path><path d="M327 600L401 600L382 472Z" fill="#034264" stroke="#034264"></path><path d="M563 172L530 91L539 175Z" fill="#00679f" stroke="#00679f"></path><path d="M375 0L305 110L403 139Z" fill="#005b8b" stroke="#005b8b"></path><path d="M305 110L319 0L210 129Z" fill="#0081c9" stroke="#0081c9"></path><path d="M210 129L83 99L174 187Z" fill="#02486e" stroke="#02486e"></path><path d="M530 91L375 0L403 139Z" fill="#0074b4" stroke="#0074b4"></path><path d="M401 600L475 600L481 515Z" fill="#005b8b" stroke="#005b8b"></path><path d="M481 515L624 468L518 412Z" fill="#006ea9" stroke="#006ea9"></path><path d="M68 384L91 521L169 531Z" fill="#034264" stroke="#034264"></path><path d="M169 531L166 600L327 600Z" fill="#006195" stroke="#006195"></path><path d="M572 600L624 468L481 515Z" fill="#005b8b" stroke="#005b8b"></path><path d="M161 0L83 99L210 129Z" fill="#006ea9" stroke="#006ea9"></path><path d="M99 215L0 328L123 304Z" fill="#014e77" stroke="#014e77"></path><path d="M99 600L166 600L169 531Z" fill="#006195" stroke="#006195"></path><path d="M0 178L0 328L99 215Z" fill="#006195" stroke="#006195"></path><path d="M68 384L0 499L91 521Z" fill="#034264" stroke="#034264"></path><path d="M0 328L0 396L68 384Z" fill="#0074b4" stroke="#0074b4"></path><path d="M624 468L683 363L617 365Z" fill="#0081c9" stroke="#0081c9"></path><path d="M617 365L707 315L597 262Z" fill="#014e77" stroke="#014e77"></path><path d="M694 76L602 67L563 172Z" fill="#02486e" stroke="#02486e"></path><path d="M563 172L602 67L530 91Z" fill="#006ea9" stroke="#006ea9"></path><path d="M319 0L161 0L210 129Z" fill="#00679f" stroke="#00679f"></path><path d="M722 193L563 172L597 262Z" fill="#0074b4" stroke="#0074b4"></path><path d="M530 91L519 0L375 0Z" fill="#0081c9" stroke="#0081c9"></path><path d="M0 69L0 178L83 99Z" fill="#007bbe" stroke="#007bbe"></path><path d="M83 99L0 178L99 215Z" fill="#034264" stroke="#034264"></path><path d="M602 67L519 0L530 91Z" fill="#005b8b" stroke="#005b8b"></path><path d="M683 363L707 315L617 365Z" fill="#0074b4" stroke="#0074b4"></path><path d="M475 600L572 600L481 515Z" fill="#0074b4" stroke="#0074b4"></path><path d="M624 468L767 511L683 363Z" fill="#005b8b" stroke="#005b8b"></path><path d="M806 425L794 269L707 315Z" fill="#005b8b" stroke="#005b8b"></path><path d="M0 600L99 600L91 521Z" fill="#014e77" stroke="#014e77"></path><path d="M91 521L99 600L169 531Z" fill="#005b8b" stroke="#005b8b"></path><path d="M0 396L0 499L68 384Z" fill="#034264" stroke="#034264"></path><path d="M161 0L96 0L83 99Z" fill="#0074b4" stroke="#0074b4"></path><path d="M707 315L722 193L597 262Z" fill="#00679f" stroke="#00679f"></path><path d="M572 600L685 535L624 468Z" fill="#005481" stroke="#005481"></path><path d="M707 315L783 239L722 193Z" fill="#02486e" stroke="#02486e"></path><path d="M96 0L0 69L83 99Z" fill="#034264" stroke="#034264"></path><path d="M722 193L694 76L563 172Z" fill="#034264" stroke="#034264"></path><path d="M602 67L631 0L519 0Z" fill="#02486e" stroke="#02486e"></path><path d="M662 0L631 0L602 67Z" fill="#0074b4" stroke="#0074b4"></path><path d="M0 499L0 600L91 521Z" fill="#0081c9" stroke="#0081c9"></path><path d="M572 600L679 600L685 535Z" fill="#0074b4" stroke="#0074b4"></path><path d="M794 269L783 239L707 315Z" fill="#007bbe" stroke="#007bbe"></path><path d="M694 76L662 0L602 67Z" fill="#006ea9" stroke="#006ea9"></path><path d="M707 315L683 363L806 425Z" fill="#014e77" stroke="#014e77"></path><path d="M722 193L768 139L694 76Z" fill="#0081c9" stroke="#0081c9"></path><path d="M694 76L827 0L662 0Z" fill="#02486e" stroke="#02486e"></path><path d="M767 511L624 468L685 535Z" fill="#02486e" stroke="#02486e"></path><path d="M96 0L0 0L0 69Z" fill="#0074b4" stroke="#0074b4"></path><path d="M900 228L768 139L783 239Z" fill="#006195" stroke="#006195"></path><path d="M783 239L768 139L722 193Z" fill="#005481" stroke="#005481"></path><path d="M679 600L767 511L685 535Z" fill="#00679f" stroke="#00679f"></path><path d="M767 511L806 425L683 363Z" fill="#006195" stroke="#006195"></path><path d="M900 386L794 269L806 425Z" fill="#034264" stroke="#034264"></path><path d="M900 386L900 286L794 269Z" fill="#006195" stroke="#006195"></path><path d="M794 269L900 228L783 239Z" fill="#034264" stroke="#034264"></path><path d="M768 139L827 0L694 76Z" fill="#006195" stroke="#006195"></path><path d="M900 519L900 386L806 425Z" fill="#014e77" stroke="#014e77"></path><path d="M900 519L806 425L767 511Z" fill="#005b8b" stroke="#005b8b"></path><path d="M900 286L900 228L794 269Z" fill="#005481" stroke="#005481"></path><path d="M679 600L833 600L767 511Z" fill="#00679f" stroke="#00679f"></path><path d="M900 97L827 0L768 139Z" fill="#034264" stroke="#034264"></path><path d="M833 600L900 519L767 511Z" fill="#014e77" stroke="#014e77"></path><path d="M900 228L900 97L768 139Z" fill="#02486e" stroke="#02486e"></path><path d="M833 600L900 600L900 519Z" fill="#005481" stroke="#005481"></path><path d="M900 97L900 0L827 0Z" fill="#006ea9" stroke="#006ea9"></path></g></svg>